{"title":"Around The World With Manu - S01E01","uid":16006785,"size":370894166,"categoryP":"video","categoryS":"tv_shows","magnet":"?xt=urn:btih:74f4c76b9725b76fa07f90740b44eb11af21d7ab&amp;dn=Around+The+World+With+Manu+-+S01E01&amp;tr=udp%3A%2F%2Ftracker.leechers-paradise.org%3A6969&amp;tr=udp%3A%2F%2Fzer0day.ch%3A1337&amp;tr=udp%3A%2F%2Fopen.demonii.com%3A1337&amp;tr=udp%3A%2F%2Ftracker.coppersurfer.tk%3A6969&amp;tr=udp%3A%2F%2Fexodus.desync.com%3A6969","seeders":9,"leechers":6,"uploader":"Bullrout","files":1,"time":1476190899,"description":"Around The World With Manu - S01E01\r\n\r\nWith some rare spare time on his hands, Manu Feildel decides to follow his dream of circumnavigating the world, on $20,000 in 30 days. Can he do it?\r\n\r\nComplete name                            : Around The World With Manu - S01E01.mp4\r\nFormat                                   : MPEG-4\r\nFormat profile                           : Base Media / Version 2\r\nCodec ID                                 : mp42 (mp42/isom/avc1)\r\nFile size                                : 354 MiB\r\nDuration                                 : 44 min 26 s\r\nOverall bit rate mode                    : Variable\r\nOverall bit rate                         : 1 113 kb/s\r\n\r\nVideo\r\nID                                       : 2\r\nFormat                                   : AVC\r\nFormat/Info                              : Advanced Video Codec\r\nFormat profile                           :   \r\nFormat settings, CABAC                   : Yes\r\nFormat settings, ReFrames                : 3 frames\r\nCodec ID                                 : avc1\r\nCodec ID/Info                            : Advanced Video Coding\r\nDuration                                 : 44 min 26 s\r\nBit rate mode                            : Variable\r\nBit rate                                 : 981 kb/s\r\nMaximum bit rate                         : 1 000 kb/s\r\nWidth                                    : 720 pixels\r\nHeight                                   : 404 pixels\r\nDisplay aspect ratio                     : 16:9\r\nOriginal display aspect ratio            : 16:9\r\nFrame rate mode                          : Constant\r\nFrame rate                               : 25.000 FPS\r\nStandard                                 : PAL\r\nColor space                              : YUV\r\nChroma subsampling                       : 4:2:0\r\nBit depth                                : 8 bits\r\nScan type                                : Progressive\r\nBits/(Pixel*Frame)                       : 0.135\r\nStream size                              : 312 MiB (88%)\r\nWriting library                          : x264 core 112\r\nColor range                              : Limited\r\nColor primaries                          : BT.601 PAL\r\nTransfer characteristics                 : BT.470 System B, BT.470 System G\r\nMatrix coefficients                      : BT.601\r\n\r\nAudio\r\nID                                       : 1\r\nFormat                                   : AAC\r\nFormat/Info                              : Advanced Audio Codec\r\nFormat profile                           : LC\r\nCodec ID                                 : 40\r\nDuration                                 : 44 min 25 s\r\nBit rate mode                            : Variable\r\nBit rate                                 : 128 kb/s\r\nMaximum bit rate                         : 576 kb/s\r\nChannel(s)                               : 2 channels\r\nChannel positions                        : Front: L R\r\nSampling rate                            : 48.0 kHz\r\nFrame rate                               : 46.875 FPS (1024 spf)\r\nCompression mode                         : Lossy\r\nStream size                              : 40.7 MiB (12%)","torrent":{"xt":"urn:btih:74f4c76b9725b76fa07f90740b44eb11af21d7ab","amp;dn":"Around+The+World+With+Manu+-+S01E01","amp;tr":["udp%3A%2F%2Ftracker.leechers-paradise.org%3A6969","udp%3A%2F%2Fzer0day.ch%3A1337","udp%3A%2F%2Fopen.demonii.com%3A1337","udp%3A%2F%2Ftracker.coppersurfer.tk%3A6969","udp%3A%2F%2Fexodus.desync.com%3A6969"],"infoHash":"74f4c76b9725b76fa07f90740b44eb11af21d7ab","infoHashBuffer":{"type":"Buffer","data":[116,244,199,107,151,37,183,111,160,127,144,116,11,68,235,17,175,33,215,171]},"announce":[],"urlList":[]}}